<svg xmlns="http://www.w3.org/2000/svg" version="1.0" width="200" height="200" preserveAspectRatio="xMidYMid meet"><rect id="backgroundrect" width="100%" height="100%" x="0" y="0" fill="none" stroke="none"/>
<metadata>
Created by potrace 1.14, written by Peter Selinger 2001-2017
</metadata>

<g class="currentLayer" style=""><title>Layer 1</title>
<path d="M7.300000108778477,2.999997064471245 c-4.700000070035458,1.9000000283122063 -4.800000071525574,3.0000000447034836 -5.100000075995922,47.50000070780516 c-0.20000000298023224,23.100000344216824 0,43.00000064074993 0.30000000447034836,44.200000658631325 c0.5000000074505806,2.2000000327825546 0.800000011920929,2.3000000342726707 17.80000026524067,2.500000037252903 l17.200000256299973,0.30000000447034836 l-0.10000000149011612,3.0000000447034836 c-0.10000000149011612,1.600000023841858 -0.5000000074505806,5.100000075995922 -0.9000000134110451,7.600000113248825 c-2.3000000342726707,14.300000213086605 16.00000023841858,22.000000327825546 24.300000362098217,10.200000151991844 c2.9000000432133675,-4.200000062584877 3.300000049173832,-7.500000111758709 1.600000023841858,-13.200000196695328 c-2.400000035762787,-8.00000011920929 -2.2000000327825546,-8.100000120699406 17.80000026524067,-8.100000120699406 l16.900000251829624,0 l-0.30000000447034836,-13.700000204145908 l-0.30000000447034836,-13.700000204145908 l-6.500000096857548,0.20000000298023224 c-5.200000077486038,0.20000000298023224 -7.300000108778477,-0.20000000298023224 -10.500000156462193,-2.0000000298023224 c-11.400000169873238,-6.600000098347664 -14.000000208616257,-22.500000335276127 -5.200000077486038,-32.40000048279762 c4.400000065565109,-5.100000075995922 7.600000113248825,-6.400000095367432 15.70000023394823,-6.400000095367432 l7.000000104308128,0 l0,-13.500000201165676 l0,-13.500000201165676 l-43.700000651180744,0.10000000149011612 c-24.100000359117985,0 -44.80000066757202,0.4000000059604645 -46.000000685453415,0.9000000134110451 z" id="svg_2" class="" fill="#db2828" fill-opacity="1"/>
<path d="M103.90000154823065,2.6999970600008965 c0,0.5000000074505806 0,6.600000098347664 0,13.800000205636024 c0,7.1000001057982445 -0.30000000447034836,14.800000220537186 -0.7000000104308128,17.00000025331974 c-0.800000011920929,4.400000065565109 -0.7000000104308128,4.400000065565109 -10.400000154972076,2.9000000432133675 c-6.200000092387199,-0.9000000134110451 -8.900000132620335,-0.10000000149011612 -12.600000187754631,3.7000000551342964 c-5.700000084936619,5.800000086426735 -5.100000075995922,14.200000211596489 1.5000000223517418,20.000000298023224 c3.400000050663948,2.9000000432133675 4.000000059604645,3.1000000461935997 9.200000137090683,2.500000037252903 c12.600000187754631,-1.3000000193715096 11.500000171363354,-1.600000023841858 12.300000183284283,3.400000050663948 c0.30000000447034836,2.500000037252903 0.7000000104308128,10.500000156462193 0.7000000104308128,17.80000026524067 l0.10000000149011612,13.300000198185444 l13.300000198185444,-0.30000000447034836 l13.200000196695328,-0.30000000447034836 l-0.30000000447034836,-6.100000090897083 c-0.5000000074505806,-9.100000135600567 3.200000047683716,-15.500000230967999 11.300000168383121,-19.700000293552876 c9.100000135600567,-4.700000070035458 21.40000031888485,-1.3000000193715096 27.200000405311584,7.400000110268593 c2.2000000327825546,3.300000049173832 2.600000038743019,5.200000077486038 2.7000000402331352,11.200000166893005 l0.10000000149011612,7.200000107288361 l13.300000198185444,0.30000000447034836 l13.200000196695328,0.30000000447034836 l0,-44.00000065565109 c0,-30.800000458955765 -0.30000000447034836,-44.80000066757202 -1.1000000163912773,-46.500000692903996 c-0.7000000104308128,-1.4000000208616257 -2.500000037252903,-3.0000000447034836 -4.200000062584877,-3.6000000536441803 c-3.500000052154064,-1.2000000178813934 -88.700001321733,-1.5000000223517418 -88.80000132322311,-0.30000000447034836 z" id="svg_3" class="" fill-opacity="1" fill="#2185d0"/>

<path d="M193.9705102522198,196.5259868982856 c4.699939088138508,-1.8999753760559925 4.7999377921414546,-2.9999611200884093 5.099933904150295,-47.49938440139981 c0.19999740800589394,-23.09970062468075 0,-42.999442721267194 -0.2999961120088409,-44.19942716930256 c-0.49999352001473485,-2.1999714880648336 -0.7999896320235758,-2.2999701920677804 -17.79976931252456,-2.499967600073674 l-17.199777088506877,-0.2999961120088409 l0.09999870400294697,-2.9999611200884093 c0.09999870400294697,-1.5999792640471515 0.49999352001473485,-5.099933904150295 0.8999883360265227,-7.59990150422397 c2.2999701920677804,-14.299814672421416 -15.999792640471515,-21.999714880648334 -24.299685072716112,-10.19986780830059 c-2.899962416085462,4.1999455681237725 -3.29995723209725,7.499902800221022 -1.5999792640471515,13.199828928389 c2.3999688960707273,7.999896320235758 2.1999714880648336,8.099895024238705 -17.79976931252456,8.099895024238705 l-16.89978097649804,0 l0.2999961120088409,13.699822448403735 l0.2999961120088409,13.699822448403735 l6.499915760191553,-0.19999740800589394 c5.199932608153242,-0.19999740800589394 7.299905392215129,0.19999740800589394 10.499863920309432,1.9999740800589394 c11.399852256335954,6.5999144641945 13.999818560412576,22.499708400663067 5.199932608153242,32.39958009695482 c-4.399942976129667,5.099933904150295 -7.59990150422397,6.399917056188606 -15.699796528462674,6.399917056188606 l-6.999909280206288,0 l0,13.499825040397841 l0,13.499825040397841 l43.699433649287826,-0.09999870400294697 c24.09968766471022,0 44.79941939332024,-0.3999948160117879 45.99940384135561,-0.8999883360265227 z" id="svg_9" class="selected" fill-opacity="1" fill="#21ba45"/>
<path d="M97.37329040714621,197.31807042125692 c0,-0.49999352001473485 0,-6.5999144641945 0,-13.799821152406683 c0,-7.099907984209235 0.2999961120088409,-14.799808192436151 0.6999909280206288,-16.999779680500986 c0.7999896320235758,-4.399942976129667 0.6999909280206288,-4.399942976129667 10.399865216306484,-2.899962416085462 c6.199919648182712,0.8999883360265227 8.89988465626228,0.09999870400294697 12.599836704371318,-3.6999520481090378 c5.699926128167977,-5.799924832170924 5.099933904150295,-14.19981596841847 -1.4999805600442047,-19.999740800589393 c-3.3999559361001968,-2.899962416085462 -3.999948160117879,-3.099959824091356 -9.199880768271122,-2.499967600073674 c-12.599836704371318,1.2999831520383105 -11.499850960338902,1.5999792640471515 -12.299840592362477,-3.3999559361001968 c-0.2999961120088409,-2.499967600073674 -0.6999909280206288,-10.499863920309432 -0.6999909280206288,-17.79976931252456 l-0.09999870400294697,-13.299827632391947 l-13.299827632391947,0.2999961120088409 l-13.199828928389,0.2999961120088409 l0.2999961120088409,6.0999209441797655 c0.49999352001473485,9.099882064268174 -3.199958528094303,15.49979912045678 -11.299853552333008,19.69974468858055 c-9.099882064268174,4.699939088138508 -21.39972265663065,1.2999831520383105 -27.199647488801574,-7.3999040962180755 c-2.1999714880648336,-3.29995723209725 -2.599966304076621,-5.199932608153242 -2.6999650080795683,-11.19985484833006 l-0.09999870400294697,-7.199906688212182 l-13.299827632391947,-0.2999961120088409 l-13.199828928389,-0.2999961120088409 l0,43.99942976129667 c0,30.799600832907668 0.2999961120088409,44.79941939332024 1.0999857440324168,46.49939736137034 c0.6999909280206288,1.3999818560412576 2.499967600073674,2.9999611200884093 4.1999455681237725,3.599953344106091 c3.499954640103144,1.1999844480353636 88.69885045061396,1.4999805600442047 88.7988491546169,0.2999961120088409 z" id="svg_11" class="" fill-opacity="1" fill="#fbbd08"/>
</g></svg>